<!-- Generated by IcoMoon.io -->
<svg version="1.1" xmlns="http://www.w3.org/2000/svg" width="79" height="34" viewBox="0 0 79 34">
<title>arows-acent-left</title>
<path fill="#ff6c1a" d="M75.28 14.436h-63.285l10.483-9.455c1.17-1.055 1.174-2.77 0.010-3.83s-3.056-1.064-4.226-0.009l-15.614 14.082c-0.001 0.001-0.002 0.002-0.003 0.003-1.167 1.055-1.171 2.775-0 3.834 0.001 0.001 0.002 0.002 0.003 0.003l15.614 14.082c1.17 1.055 3.062 1.051 4.226-0.009s1.16-2.775-0.010-3.83l-10.483-9.454h63.285c1.65 0 2.988-1.212 2.988-2.708s-1.338-2.708-2.988-2.708z"></path>
</svg>
