<!-- Generated by IcoMoon.io -->
<svg version="1.1" xmlns="http://www.w3.org/2000/svg" width="79" height="34" viewBox="0 0 79 34">
<title>arows-right</title>
<path fill="#fff" d="M4.87 14.171h63.285l-10.483-9.455c-1.17-1.055-1.174-2.77-0.010-3.83s3.057-1.064 4.226-0.009l15.615 14.082c0.001 0.001 0.002 0.002 0.003 0.003 1.167 1.055 1.17 2.775 0 3.834-0.001 0.001-0.002 0.002-0.003 0.003l-15.614 14.082c-1.17 1.055-3.062 1.051-4.226-0.009s-1.16-2.775 0.010-3.83l10.483-9.455h-63.285c-1.65 0-2.988-1.212-2.988-2.708s1.338-2.708 2.988-2.708z"></path>
</svg>
