<!-- Generated by IcoMoon.io -->
<svg version="1.1" xmlns="http://www.w3.org/2000/svg" width="35" height="34" viewBox="0 0 35 34">
<title>cart</title>
<path fill="#fff" d="M16.88 30.68c0 1.687-1.299 3.054-2.902 3.054s-2.902-1.367-2.902-3.054c0-1.687 1.299-3.054 2.902-3.054s2.902 1.367 2.902 3.054zM25.729 27.627c-1.603 0-2.902 1.367-2.902 3.054s1.299 3.054 2.902 3.054 2.902-1.367 2.902-3.054c0-1.687-1.299-3.054-2.902-3.054zM34.737 13.29l-3.571 11.169c0 0-0.296 1.657-1.802 1.657s-16.234 0-18.032 0c-1.797 0-1.873-2.077-1.873-2.077s-1.916-14.959-2.011-15.862c-0.095-0.904-1.193-1.573-1.193-1.573l-4.725-2.323c-2.587-1.424-1.411-4.132 0-3.51 5.992 2.974 8.775 4.439 8.954 5.611 0.181 1.174 0.496 4.001 0.496 4.001v0.018c0.037-0.011 0.063-0.018 0.063-0.018s18.375 0 22.086 0c2.667 0 1.607 2.913 1.607 2.909zM29.571 19.509l-0.037 0.002h-17.481l0.36 3.006h16.308l0.85-3.009zM31.274 13.447h-19.943l0.384 3.213c3.825 0 15.028 0 18.657 0l0.902-3.213z"></path>
</svg>
