<!-- Generated by IcoMoon.io -->
<svg version="1.1" xmlns="http://www.w3.org/2000/svg" width="34" height="34" viewBox="0 0 34 34">
<title>Clock</title>
<path fill="#fff" d="M29.021 4.979c-3.211-3.211-7.48-4.979-12.021-4.979s-8.81 1.768-12.021 4.979c-3.211 3.211-4.979 7.48-4.979 12.021s1.768 8.81 4.979 12.021c3.211 3.211 7.48 4.979 12.021 4.979 3.109 0 6.15-0.847 8.796-2.45 0.627-0.38 0.828-1.197 0.448-1.824s-1.197-0.828-1.824-0.448c-2.231 1.351-4.797 2.066-7.42 2.066-7.909 0-14.344-6.434-14.344-14.344s6.435-14.344 14.344-14.344c7.909 0 14.344 6.435 14.344 14.344 0 2.828-0.841 5.581-2.432 7.961-0.408 0.61-0.244 1.435 0.366 1.842s1.435 0.244 1.842-0.366c1.884-2.818 2.88-6.082 2.88-9.437 0-4.541-1.768-8.81-4.979-12.021z"></path>
<path fill="#fff" d="M17 5.047c-0.734 0-1.328 0.595-1.328 1.328v10.075l-4.87 4.87c-0.519 0.519-0.519 1.359 0 1.878 0.259 0.259 0.599 0.389 0.939 0.389s0.68-0.13 0.939-0.389l5.259-5.259c0.249-0.249 0.389-0.587 0.389-0.939v-10.625c0-0.734-0.595-1.328-1.328-1.328z"></path>
</svg>
