<!-- Generated by IcoMoon.io -->
<svg version="1.1" xmlns="http://www.w3.org/2000/svg" width="34" height="34" viewBox="0 0 34 34">
<title>instagram</title>
<path fill="#ff6c1a" d="M17 3.061c4.542 0 5.080 0.020 6.866 0.1 1.661 0.073 2.556 0.352 3.155 0.584 0.791 0.306 1.361 0.678 1.952 1.269 0.598 0.598 0.963 1.162 1.275 1.953 0.233 0.598 0.511 1.5 0.584 3.155 0.080 1.793 0.1 2.331 0.1 6.867s-0.020 5.080-0.1 6.867c-0.073 1.661-0.352 2.556-0.584 3.155-0.306 0.791-0.677 1.361-1.269 1.952-0.598 0.598-1.162 0.963-1.952 1.275-0.598 0.233-1.501 0.511-3.155 0.584-1.794 0.080-2.331 0.1-6.867 0.1s-5.080-0.020-6.867-0.1c-1.661-0.073-2.556-0.352-3.155-0.584-0.79-0.306-1.361-0.677-1.953-1.269-0.598-0.598-0.963-1.162-1.275-1.952-0.233-0.598-0.511-1.501-0.584-3.155-0.080-1.794-0.1-2.331-0.1-6.867s0.020-5.080 0.1-6.867c0.073-1.661 0.352-2.556 0.584-3.155 0.306-0.79 0.678-1.361 1.269-1.953 0.598-0.598 1.162-0.963 1.953-1.275 0.598-0.233 1.5-0.511 3.155-0.584 1.786-0.080 2.325-0.1 6.867-0.1zM17 0c-4.616 0-5.192 0.020-7.006 0.1-1.806 0.080-3.048 0.372-4.124 0.79-1.122 0.438-2.072 1.016-3.014 1.966-0.95 0.943-1.528 1.892-1.966 3.008-0.419 1.083-0.711 2.317-0.79 4.124-0.080 1.82-0.1 2.397-0.1 7.012s0.020 5.192 0.1 7.006c0.080 1.806 0.372 3.048 0.79 4.124 0.439 1.122 1.016 2.072 1.966 3.014 0.942 0.942 1.892 1.528 3.008 1.959 1.083 0.419 2.317 0.711 4.124 0.791 1.813 0.080 2.391 0.1 7.006 0.1s5.193-0.020 7.006-0.1c1.806-0.080 3.048-0.372 4.124-0.791 1.116-0.431 2.066-1.016 3.008-1.959s1.528-1.892 1.959-3.008c0.419-1.083 0.711-2.317 0.791-4.124 0.080-1.813 0.1-2.391 0.1-7.006s-0.020-5.192-0.1-7.006c-0.080-1.806-0.372-3.048-0.791-4.124-0.419-1.129-0.997-2.078-1.945-3.022-0.942-0.942-1.892-1.528-3.008-1.959-1.083-0.419-2.317-0.711-4.124-0.79-1.819-0.086-2.397-0.106-7.012-0.106v0z"></path>
<path fill="#ff6c1a" d="M17 8.267c-4.821 0-8.733 3.911-8.733 8.733s3.911 8.733 8.733 8.733 8.733-3.911 8.733-8.733c0-4.821-3.911-8.733-8.733-8.733zM17 22.664c-3.128 0-5.664-2.536-5.664-5.664s2.536-5.664 5.664-5.664c3.128 0 5.664 2.536 5.664 5.664s-2.536 5.664-5.664 5.664z"></path>
<path fill="#ff6c1a" d="M28.116 7.922c0 1.126-0.913 2.039-2.039 2.039s-2.039-0.913-2.039-2.039c0-1.126 0.913-2.039 2.039-2.039s2.039 0.913 2.039 2.039z"></path>
</svg>
