<!-- Generated by IcoMoon.io -->
<svg version="1.1" xmlns="http://www.w3.org/2000/svg" width="34" height="34" viewBox="0 0 34 34">
<title>phones</title>
<path fill="#fff" stroke="#fff" stroke-linejoin="miter" stroke-linecap="butt" stroke-miterlimit="4" stroke-width="1" d="M27.049 25.039c-0.361-0.388-0.736-0.757-1.104-1.112-0.184-0.178-0.368-0.362-0.552-0.546l-1.604-1.605c-0.683-0.684-1.485-1.046-2.307-1.046-0.828 0-1.623 0.362-2.307 1.046-0.164 0.164-0.335 0.329-0.5 0.493-0.381 0.375-0.775 0.763-1.157 1.171-0.677-0.329-1.367-0.783-2.169-1.415-1.045-0.855-1.939-1.711-2.734-2.619-0.427-0.493-1.176-0.546-1.669-0.112-0.493 0.428-0.545 1.178-0.112 1.671 0.881 1.013 1.873 1.967 3.030 2.908 0.007 0 0.007 0.007 0.013 0.007 1.163 0.921 2.142 1.526 3.187 1.954 0.026 0.013 0.052 0.020 0.079 0.026 0.25 0.085 0.999 0.336 1.735-0.395 0.013-0.013 0.033-0.033 0.046-0.046 0.447-0.507 0.92-0.967 1.419-1.461 0.171-0.164 0.342-0.336 0.513-0.507 0.158-0.158 0.401-0.355 0.638-0.355s0.473 0.191 0.637 0.355l1.604 1.605c0.191 0.191 0.388 0.382 0.572 0.566 0.368 0.355 0.71 0.697 1.038 1.046 0.007 0.013 0.020 0.020 0.026 0.026 0.25 0.25 0.519 0.645-0.013 1.211l-2.004 2.007c-0.427 0.428-0.9 0.651-1.498 0.704-1.019 0.086-2.103-0.112-3.516-0.638-2.353-0.868-4.548-2.191-6.92-4.165-2.865-2.402-5.119-5.283-6.71-8.566-0.565-1.191-1.229-2.77-1.341-4.448-0.059-0.934 0.191-1.605 0.795-2.171 0.44-0.368 0.828-0.77 1.196-1.151 0.237-0.25 0.46-0.48 0.697-0.697l0.007-0.007c0.467-0.447 0.854-0.454 1.288-0.020l3.24 3.244c0.007 0.007 0.013 0.013 0.020 0.020 0.138 0.132 0.302 0.335 0.309 0.559 0 0.237-0.178 0.467-0.322 0.619l-2.011 2.013c-0.46 0.46-0.46 1.211 0 1.678 0.46 0.461 1.209 0.461 1.676 0l2.011-2.013c0.677-0.678 1.025-1.474 1.019-2.316-0.007-0.822-0.361-1.599-1.025-2.237l-3.233-3.237c-1.354-1.355-3.194-1.362-4.594-0.020-0.276 0.257-0.526 0.52-0.775 0.776-0.348 0.362-0.677 0.704-1.032 1-0.013 0.013-0.026 0.026-0.046 0.039-1.15 1.046-1.676 2.415-1.577 4.073 0.138 2.079 0.907 3.935 1.564 5.316v0.007c1.742 3.592 4.199 6.737 7.321 9.356 2.583 2.145 5.001 3.599 7.61 4.566 0.959 0.355 2.359 0.803 3.91 0.803 0.204 0 0.414-0.007 0.624-0.026h0.007c1.15-0.099 2.149-0.566 2.97-1.388l2.011-2.013c0.007-0.007 0.013-0.013 0.020-0.020 1.295-1.349 1.288-3.204 0-4.514z"></path>
<path fill="#fff" stroke="#fff" stroke-linejoin="miter" stroke-linecap="butt" stroke-miterlimit="4" stroke-width="1" d="M26.582 16.992c-0.408-2.395-1.538-4.579-3.266-6.316-1.715-1.724-3.897-2.855-6.296-3.263-0.644-0.112-1.255 0.322-1.367 0.967s0.322 1.257 0.966 1.368c1.906 0.322 3.647 1.23 5.027 2.612s2.287 3.125 2.609 5.033c0.099 0.579 0.598 0.987 1.163 0.987 0.066 0 0.131-0.007 0.197-0.020 0.644-0.112 1.078-0.724 0.966-1.368z"></path>
<path fill="#fff" stroke="#fff" stroke-linejoin="miter" stroke-linecap="butt" stroke-miterlimit="4" stroke-width="1" d="M32.982 16.703c-0.664-3.921-2.517-7.494-5.349-10.33s-6.401-4.691-10.317-5.356c-0.644-0.112-1.255 0.322-1.367 0.967s0.322 1.257 0.966 1.368c3.43 0.586 6.559 2.204 9.043 4.691s4.107 5.619 4.685 9.053c0.099 0.579 0.598 0.987 1.163 0.987 0.066 0 0.131-0.007 0.197-0.020 0.657-0.105 1.091-0.717 0.979-1.362z"></path>
</svg>
