<!-- Generated by IcoMoon.io -->
<svg version="1.1" xmlns="http://www.w3.org/2000/svg" width="35" height="34" viewBox="0 0 35 34">
<title>searching</title>
<path fill="#fff" d="M34.498 30.969l-8.636-8.416c2.22-2.473 3.437-5.585 3.437-8.825 0-7.569-6.572-13.727-14.65-13.727s-14.649 6.158-14.649 13.727c0 7.569 6.572 13.728 14.649 13.728 3.032 0 5.922-0.857 8.393-2.484l8.701 8.48c0.364 0.354 0.853 0.549 1.377 0.549 0.496 0 0.967-0.177 1.324-0.5 0.759-0.685 0.783-1.82 0.053-2.532zM14.649 3.581c5.971 0 10.828 4.552 10.828 10.146s-4.857 10.146-10.828 10.146c-5.971 0-10.828-4.552-10.828-10.146s4.857-10.146 10.828-10.146z"></path>
</svg>
