<!-- Generated by IcoMoon.io -->
<svg version="1.1" xmlns="http://www.w3.org/2000/svg" width="34" height="34" viewBox="0 0 34 34">
<title>youtube</title>
<path fill="#ff6c1a" d="M33.661 10.2c0 0-0.333-2.344-1.355-3.373-1.295-1.355-2.742-1.361-3.406-1.441-4.755-0.345-11.894-0.345-11.894-0.345h-0.013c0 0-7.139 0-11.894 0.345-0.664 0.080-2.111 0.086-3.406 1.441-1.023 1.030-1.348 3.373-1.348 3.373s-0.339 2.75-0.339 5.505v2.577c0 2.749 0.339 5.505 0.339 5.505s0.333 2.344 1.348 3.373c1.295 1.355 2.995 1.308 3.752 1.455 2.723 0.259 11.561 0.339 11.561 0.339s7.145-0.013 11.9-0.352c0.664-0.080 2.112-0.086 3.406-1.441 1.022-1.030 1.355-3.373 1.355-3.373s0.339-2.749 0.339-5.505v-2.577c-0.006-2.75-0.345-5.505-0.345-5.505zM13.487 21.409v-9.556l9.184 4.795-9.184 4.761z"></path>
</svg>
