<?xml version="1.0" encoding="utf-8"?><svg width="228" height="200" viewBox="0 0 228 200" xmlns="http://www.w3.org/2000/svg" xmlns:xlink="http://www.w3.org/1999/xlink"><svg width="54" height="54" viewBox="-10 -10 54 54" id="arow-bottom" x="120" xmlns="http://www.w3.org/2000/svg"><path fill="#fff" d="M19.816 24.434L33.61 10.669a1.328 1.328 0 00-1.876-1.88L17.939 22.555a1.33 1.33 0 01-1.879-.001L2.266 8.789a1.328 1.328 0 00-1.876 1.88l13.793 13.764a3.99 3.99 0 005.634.001z"/></svg><svg width="60" height="37.22" viewBox="-19.75 -19.75 118.5 73.5" id="arows-acent-left" xmlns="http://www.w3.org/2000/svg"><path fill="#ff6c1a" d="M75.28 14.436H11.995l10.483-9.455c1.17-1.055 1.174-2.77.01-3.83s-3.056-1.064-4.226-.009L2.648 15.224l-.003.003c-1.167 1.055-1.171 2.775 0 3.834l.003.003 15.614 14.082c1.17 1.055 3.062 1.051 4.226-.009s1.16-2.775-.01-3.83l-10.483-9.454H75.28c1.65 0 2.988-1.212 2.988-2.708s-1.338-2.708-2.988-2.708z"/></svg><svg width="60" height="37.22" viewBox="-19.75 -19.75 118.5 73.5" id="arows-right" x="60" xmlns="http://www.w3.org/2000/svg"><path fill="#fff" d="M4.87 14.171h63.285L57.672 4.716c-1.17-1.055-1.174-2.77-.01-3.83s3.057-1.064 4.226-.009l15.615 14.082.003.003c1.167 1.055 1.17 2.775 0 3.834l-.003.003-15.614 14.082c-1.17 1.055-3.062 1.051-4.226-.009s-1.16-2.775.01-3.83l10.483-9.455H4.871c-1.65 0-2.988-1.212-2.988-2.708s1.338-2.708 2.988-2.708z"/></svg><svg width="55" height="54" viewBox="-10 -10 55 54" id="cart" y="37.22" xmlns="http://www.w3.org/2000/svg"><path fill="#fff" d="M16.88 30.68c0 1.687-1.299 3.054-2.902 3.054s-2.902-1.367-2.902-3.054c0-1.687 1.299-3.054 2.902-3.054s2.902 1.367 2.902 3.054zm8.849-3.053c-1.603 0-2.902 1.367-2.902 3.054s1.299 3.054 2.902 3.054 2.902-1.367 2.902-3.054c0-1.687-1.299-3.054-2.902-3.054zm9.008-14.337l-3.571 11.169s-.296 1.657-1.802 1.657H11.332c-1.797 0-1.873-2.077-1.873-2.077S7.543 9.08 7.448 8.177c-.095-.904-1.193-1.573-1.193-1.573L1.53 4.281C-1.057 2.857.119.149 1.53.771c5.992 2.974 8.775 4.439 8.954 5.611.181 1.174.496 4.001.496 4.001v.018l.063-.018h22.086c2.667 0 1.607 2.913 1.607 2.909zm-5.166 6.219l-.037.002H12.053l.36 3.006h16.308l.85-3.009zm1.703-6.062H11.331l.384 3.213h18.657l.902-3.213z"/></svg><svg width="54" height="54" viewBox="-10 -10 54 54" id="clock" y="91.22" xmlns="http://www.w3.org/2000/svg"><path fill="#fff" d="M29.021 4.979C25.81 1.768 21.541 0 17 0S8.19 1.768 4.979 4.979C1.768 8.19 0 12.459 0 17s1.768 8.81 4.979 12.021A16.888 16.888 0 0017 34c3.109 0 6.15-.847 8.796-2.45a1.329 1.329 0 00-1.376-2.272A14.322 14.322 0 0117 31.344C9.091 31.344 2.656 24.91 2.656 17S9.091 2.656 17 2.656 31.344 9.091 31.344 17c0 2.828-.841 5.581-2.432 7.961a1.327 1.327 0 102.208 1.476A16.934 16.934 0 0034 17c0-4.541-1.768-8.81-4.979-12.021z"/><path fill="#fff" d="M17 5.047c-.734 0-1.328.595-1.328 1.328V16.45l-4.87 4.87a1.327 1.327 0 101.878 1.878l5.259-5.259c.249-.249.389-.587.389-.939V6.375c0-.734-.595-1.328-1.328-1.328z"/></svg><svg width="54" height="54" viewBox="-10 -10 54 54" id="facebook" x="54" y="91.22" xmlns="http://www.w3.org/2000/svg"><path fill="#ff6c1a" d="M20.188 6.375h5.313V0h-5.313c-4.101 0-7.438 3.336-7.438 7.438v3.188H8.5v6.375h4.25v17h6.375v-17h5.313l1.063-6.375h-6.375V7.438c0-.576.487-1.063 1.063-1.063z"/></svg><svg width="54" height="54" viewBox="-10 -10 54 54" id="instagram" x="108" y="91.22" xmlns="http://www.w3.org/2000/svg"><path fill="#ff6c1a" d="M17 3.061c4.542 0 5.08.02 6.866.1 1.661.073 2.556.352 3.155.584a5.258 5.258 0 011.952 1.269 5.32 5.32 0 011.275 1.953c.233.598.511 1.5.584 3.155.08 1.793.1 2.331.1 6.867s-.02 5.08-.1 6.867c-.073 1.661-.352 2.556-.584 3.155a5.246 5.246 0 01-1.269 1.952 5.325 5.325 0 01-1.952 1.275c-.598.233-1.501.511-3.155.584-1.794.08-2.331.1-6.867.1s-5.08-.02-6.867-.1c-1.661-.073-2.556-.352-3.155-.584a5.266 5.266 0 01-1.953-1.269 5.325 5.325 0 01-1.275-1.952c-.233-.598-.511-1.501-.584-3.155-.08-1.794-.1-2.331-.1-6.867s.02-5.08.1-6.867c.073-1.661.352-2.556.584-3.155A5.278 5.278 0 015.024 5.02a5.32 5.32 0 011.953-1.275c.598-.233 1.5-.511 3.155-.584 1.786-.08 2.325-.1 6.867-.1zM17 0c-4.616 0-5.192.02-7.006.1C8.188.18 6.946.472 5.87.89c-1.122.438-2.072 1.016-3.014 1.966-.95.943-1.528 1.892-1.966 3.008C.471 6.947.179 8.181.1 9.988.02 11.808 0 12.385 0 17s.02 5.192.1 7.006c.08 1.806.372 3.048.79 4.124.439 1.122 1.016 2.072 1.966 3.014a8.302 8.302 0 003.008 1.959c1.083.419 2.317.711 4.124.791 1.813.08 2.391.1 7.006.1s5.193-.02 7.006-.1c1.806-.08 3.048-.372 4.124-.791 1.116-.431 2.066-1.016 3.008-1.959s1.528-1.892 1.959-3.008c.419-1.083.711-2.317.791-4.124.08-1.813.1-2.391.1-7.006s-.02-5.192-.1-7.006c-.08-1.806-.372-3.048-.791-4.124a7.997 7.997 0 00-1.945-3.022A8.302 8.302 0 0028.138.895c-1.083-.419-2.317-.711-4.124-.79-1.819-.086-2.397-.106-7.012-.106z"/><path fill="#ff6c1a" d="M17 8.267c-4.821 0-8.733 3.911-8.733 8.733s3.911 8.733 8.733 8.733 8.733-3.911 8.733-8.733A8.735 8.735 0 0017 8.267zm0 14.397a5.664 5.664 0 110-11.328 5.664 5.664 0 010 11.328zM28.116 7.922a2.04 2.04 0 11-4.078 0 2.04 2.04 0 014.078 0z"/></svg><svg width="54" height="54" viewBox="-10 -10 54 54" id="music" x="174" xmlns="http://www.w3.org/2000/svg"><path fill="#ff6c1a" d="M31.875 0H34v24.438c0 2.934-3.33 5.313-7.438 5.313s-7.438-2.379-7.438-5.313c0-2.934 3.33-5.313 7.438-5.313 2.081 0 3.962.611 5.313 1.595V8.5l-17 3.778v16.409c0 2.934-3.33 5.313-7.438 5.313s-7.438-2.379-7.438-5.313c0-2.934 3.33-5.313 7.438-5.313 2.081 0 3.962.611 5.313 1.595V4.249l19.125-4.25z"/></svg><svg width="54" height="54" viewBox="-10 -10 54 54" id="phones" x="174" y="54" xmlns="http://www.w3.org/2000/svg"><path fill="#fff" stroke="#fff" d="M27.049 25.039a29.008 29.008 0 00-1.104-1.112 47.105 47.105 0 01-.552-.546l-1.604-1.605c-.683-.684-1.485-1.046-2.307-1.046-.828 0-1.623.362-2.307 1.046-.164.164-.335.329-.5.493-.381.375-.775.763-1.157 1.171-.677-.329-1.367-.783-2.169-1.415a22.643 22.643 0 01-2.734-2.619 1.178 1.178 0 00-1.669-.112 1.181 1.181 0 00-.112 1.671 24.217 24.217 0 003.03 2.908c.007 0 .007.007.013.007 1.163.921 2.142 1.526 3.187 1.954.026.013.052.02.079.026.25.085.999.336 1.735-.395l.046-.046c.447-.507.92-.967 1.419-1.461.171-.164.342-.336.513-.507.158-.158.401-.355.638-.355s.473.191.637.355l1.604 1.605c.191.191.388.382.572.566.368.355.71.697 1.038 1.046.007.013.02.02.026.026.25.25.519.645-.013 1.211l-2.004 2.007c-.427.428-.9.651-1.498.704-1.019.086-2.103-.112-3.516-.638-2.353-.868-4.548-2.191-6.92-4.165-2.865-2.402-5.119-5.283-6.71-8.566-.565-1.191-1.229-2.77-1.341-4.448-.059-.934.191-1.605.795-2.171.44-.368.828-.77 1.196-1.151.237-.25.46-.48.697-.697l.007-.007c.467-.447.854-.454 1.288-.02l3.24 3.244.02.02c.138.132.302.335.309.559 0 .237-.178.467-.322.619l-2.011 2.013c-.46.46-.46 1.211 0 1.678.46.461 1.209.461 1.676 0l2.011-2.013c.677-.678 1.025-1.474 1.019-2.316-.007-.822-.361-1.599-1.025-2.237L9.036 7.083c-1.354-1.355-3.194-1.362-4.594-.02-.276.257-.526.52-.775.776-.348.362-.677.704-1.032 1a.267.267 0 01-.046.039c-1.15 1.046-1.676 2.415-1.577 4.073.138 2.079.907 3.935 1.564 5.316v.007c1.742 3.592 4.199 6.737 7.321 9.356 2.583 2.145 5.001 3.599 7.61 4.566.959.355 2.359.803 3.91.803.204 0 .414-.007.624-.026h.007a4.66 4.66 0 002.97-1.388l2.011-2.013.02-.02c1.295-1.349 1.288-3.204 0-4.514zM26.582 16.992a11.704 11.704 0 00-3.266-6.316 11.58 11.58 0 00-6.296-3.263 1.184 1.184 0 10-.401 2.335c1.906.322 3.647 1.23 5.027 2.612s2.287 3.125 2.609 5.033c.099.579.598.987 1.163.987.066 0 .131-.007.197-.02a1.185 1.185 0 00.966-1.368zM32.982 16.703c-.664-3.921-2.517-7.494-5.349-10.33s-6.401-4.691-10.317-5.356a1.184 1.184 0 10-.401 2.335c3.43.586 6.559 2.204 9.043 4.691s4.107 5.619 4.685 9.053c.099.579.598.987 1.163.987.066 0 .131-.007.197-.02a1.174 1.174 0 00.979-1.362z"/></svg><svg width="55" height="54" viewBox="-10 -10 55 54" id="searching" x="55" y="37.22" xmlns="http://www.w3.org/2000/svg"><path fill="#fff" d="M34.498 30.969l-8.636-8.416c2.22-2.473 3.437-5.585 3.437-8.825 0-7.569-6.572-13.727-14.65-13.727S0 6.159 0 13.728s6.572 13.728 14.649 13.728c3.032 0 5.922-.857 8.393-2.484l8.701 8.48a1.96 1.96 0 001.377.549c.496 0 .967-.177 1.324-.5.759-.685.783-1.82.053-2.532zM14.649 3.581c5.971 0 10.828 4.552 10.828 10.146S20.62 23.873 14.649 23.873c-5.971 0-10.828-4.552-10.828-10.146S8.678 3.581 14.649 3.581z"/></svg><svg width="54" height="54" viewBox="-10 -10 54 54" id="youtube" y="145.22" xmlns="http://www.w3.org/2000/svg"><path fill="#ff6c1a" d="M33.661 10.2s-.333-2.344-1.355-3.373c-1.295-1.355-2.742-1.361-3.406-1.441-4.755-.345-11.894-.345-11.894-.345h-.013s-7.139 0-11.894.345c-.664.08-2.111.086-3.406 1.441C.67 7.857.345 10.2.345 10.2s-.339 2.75-.339 5.505v2.577c0 2.749.339 5.505.339 5.505s.333 2.344 1.348 3.373c1.295 1.355 2.995 1.308 3.752 1.455 2.723.259 11.561.339 11.561.339s7.145-.013 11.9-.352c.664-.08 2.112-.086 3.406-1.441 1.022-1.03 1.355-3.373 1.355-3.373s.339-2.749.339-5.505v-2.577c-.006-2.75-.345-5.505-.345-5.505zM13.487 21.409v-9.556l9.184 4.795-9.184 4.761z"/></svg></svg>